# Blender v2.79 (sub 0) OBJ File: 'Lamp.blend'
# www.blender.org
mtllib Lamp.mtl
o Icosphere
v -0.475311 -0.219107 -0.654209
v -0.769070 -0.219107 -0.249882
v 0.475311 -0.219107 -0.654209
v -0.000000 -0.219107 -0.808647
v 0.748941 0.668220 0.544135
v -0.286074 0.668222 0.880429
v -0.925740 0.668219 0.000000
v -0.286074 0.668222 -0.880429
v 0.748941 0.668220 -0.544135
v 0.162456 1.346777 0.499995
v 0.525730 1.346772 0.000000
v -0.425323 1.346776 0.309011
v -0.425323 1.346776 -0.309011
v 0.162456 1.346777 -0.499995
v 0.000000 1.583224 0.000000
v 0.973383 0.532930 0.000000
v 0.300787 0.532937 -0.925742
v -0.787485 0.532937 -0.572135
v -0.787485 0.532937 0.572135
v 0.300787 0.532937 0.925742
v 0.275039 -1.192253 -0.388657
v -0.277744 -1.192253 -0.388657
v -0.448564 -1.192253 0.137072
v -0.001353 -1.192253 0.461990
v 0.445859 -1.192253 0.137072
v -0.475311 -0.219107 0.654209
v -0.769070 -0.219107 0.249882
v 0.475311 -0.219107 0.654209
v -0.000000 -0.219107 0.808647
v 0.769070 -0.219107 -0.249882
v 0.769070 -0.219107 0.249882
v -0.001353 -1.192253 -0.478462
v -0.448564 -1.192253 -0.153544
v -0.277745 -1.192253 0.372185
v 0.445859 -1.192253 -0.153544
v 0.275039 -1.192253 0.372185
v -0.001353 -2.132705 -0.478462
v 0.275039 -2.132705 -0.388657
v 0.445859 -2.132705 -0.153544
v 0.445859 -2.132705 0.137072
v 0.275039 -2.132705 0.372185
v -0.001353 -2.132705 0.461990
v -0.277745 -2.132705 0.372185
v -0.448564 -2.132705 0.137072
v -0.448564 -2.132705 -0.153544
v -0.277744 -2.132705 -0.388657
vt 0.941715 0.000000
vt 1.000000 0.026021
vt 0.867641 0.093388
vt 0.108267 0.328588
vt 0.166634 0.546062
vt 0.043668 0.365414
vt 0.000000 0.201190
vt 0.527319 0.021167
vt 0.587121 0.039487
vt 0.431423 0.216570
vt 0.366712 0.180169
vt 0.323134 0.344270
vt 0.978260 0.274879
vt 1.000000 0.382221
vt 0.843827 0.413746
vt 0.604994 0.607787
vt 0.611416 0.727322
vt 0.426897 0.667076
vt 0.791436 0.615667
vt 0.670680 0.598915
vt 0.791436 0.471530
vt 0.235370 0.128704
vt 0.101604 0.133206
vt 0.159966 0.000000
vt 0.748767 0.172425
vt 0.861866 0.226931
vt 0.719876 0.358410
vt 0.534265 0.248075
vt 0.824987 0.991793
vt 0.846893 0.778548
vt 0.936623 0.792661
vt 0.708315 1.000000
vt 0.646252 0.792661
vt 0.735981 0.778548
vt 0.204198 0.524648
vt 0.211066 0.296929
vt 0.967873 0.138137
vt 0.646252 0.047962
vt 0.760492 0.991793
vt 0.323134 0.497866
vt 0.263975 0.506239
vt 0.312801 0.282530
vt 0.489689 0.000000
vt 0.635953 0.262648
vt 0.558600 0.416404
vt 0.877165 1.000000
vt 0.323134 0.101852
vt 0.646252 0.443712
vt 0.912194 0.598914
vt 0.424822 0.411977
vt 0.738890 0.471530
vt 0.646252 0.411567
vt 0.032842 0.039150
vt 0.646848 0.224560
vt 0.430366 0.796281
vt 0.333520 0.838542
vt 0.323134 0.734193
vt 0.509795 0.913924
vt 0.611415 0.847009
vt 0.327907 0.629484
vt 0.499911 0.545799
vt 0.483074 0.545799
vt 0.975528 0.345491
vt 0.024472 0.345491
vt 0.206108 0.904509
vt 0.500000 1.000000
vt 0.793893 0.904508
vt 0.975528 0.654508
vt 0.793893 0.095491
vt 0.500000 0.000000
vt 0.206107 0.095492
vt 0.024472 0.654509
vt 0.866751 0.500000
vt 1.000000 1.000000
vt 0.866751 1.000000
vt 0.348851 1.000000
vt 0.241050 0.500000
vt 0.348851 0.500000
vt 0.241050 1.000000
vt 0.107801 0.500000
vt 0.107801 1.000000
vt 0.000000 0.500000
vt 1.000000 0.500000
vt 0.892199 0.000000
vt 1.000000 0.000000
vt 0.892199 0.500000
vt 0.758950 0.000000
vt 0.410099 0.000000
vt 0.517900 0.500000
vt 0.410099 0.500000
vt 0.517900 0.000000
vt 0.651149 0.500000
vt 0.651149 0.000000
vt 0.758950 0.500000
vt 0.758950 0.500000
vt 0.758950 1.000000
vt 0.000000 0.327254
vt 0.331777 0.047746
vt 0.410099 0.327254
vt 1.000000 0.500000
vt 0.000000 1.000000
vt 0.758950 0.500000
vt 0.758950 0.000000
vt 0.331777 0.452254
vt 0.205049 0.500000
vt 0.078322 0.452254
vt 0.000000 0.172746
vt 0.078322 0.047746
vt 0.205049 0.000000
vt 0.410099 0.172746
vn 0.7667 -0.3192 0.5570
vn 0.2926 -0.3212 0.9006
vn 0.2982 -0.2622 0.9178
vn 0.7690 -0.3107 -0.5587
vn 0.9490 -0.3152 0.0000
vn 0.9650 -0.2622 0.0000
vn 0.8517 0.4685 -0.2348
vn 0.0398 0.4685 -0.8826
vn -0.8271 0.4685 -0.3106
vn -0.5510 0.4685 0.6906
vn 0.4865 0.4685 0.7374
vn -0.2941 -0.3067 -0.9052
vn -0.9498 -0.3128 0.0000
vn -0.2927 -0.3205 0.9009
vn 0.2940 -0.3075 -0.9050
vn -0.7695 -0.3088 -0.5591
vn -0.7672 -0.3173 0.5574
vn -0.7807 -0.2622 0.5672
vn -0.7807 -0.2622 -0.5672
vn 0.2982 -0.2622 -0.9178
vn 0.6637 -0.1129 0.7394
vn 0.7967 -0.1739 0.5788
vn 0.9083 -0.1130 0.4027
vn -0.4981 -0.1129 0.8597
vn -0.3043 -0.1739 0.9366
vn -0.1023 -0.1129 0.9883
vn -0.9716 -0.1129 -0.2081
vn -0.9848 -0.1739 0.0000
vn -0.9716 -0.1129 0.2081
vn -0.1023 -0.1129 -0.9883
vn -0.3043 -0.1739 -0.9366
vn -0.4981 -0.1129 -0.8597
vn 0.9083 -0.1130 -0.4027
vn 0.7967 -0.1739 -0.5788
vn 0.6637 -0.1129 -0.7394
vn 0.3931 0.8740 0.2856
vn 0.6511 0.5935 0.4731
vn 0.8517 0.4685 0.2348
vn -0.1502 0.8740 0.4621
vn -0.2487 0.5935 0.7654
vn 0.0398 0.4685 0.8826
vn -0.4859 0.8740 0.0000
vn -0.8048 0.5935 0.0000
vn -0.8271 0.4685 0.3106
vn -0.1502 0.8740 -0.4621
vn -0.2487 0.5935 -0.7654
vn -0.5510 0.4685 -0.6906
vn 0.3931 0.8740 -0.2856
vn 0.6511 0.5935 -0.4731
vn 0.4865 0.4685 -0.7374
vn 0.0000 1.0000 -0.0000
vn 0.3090 0.0000 -0.9511
vn 0.8090 0.0000 -0.5878
vn 1.0000 0.0000 0.0000
vn 0.8090 0.0000 0.5878
vn 0.3090 0.0000 0.9511
vn -0.3090 0.0000 0.9511
vn -0.8090 0.0000 0.5878
vn -1.0000 0.0000 0.0000
vn -0.8090 0.0000 -0.5878
vn -0.3090 0.0000 -0.9511
vn 0.0000 -1.0000 -0.0000
g Icosphere_Icosphere_Lamp
usemtl Lamp
s off
f 36/1/1 25/2/1 28/3/1
f 29/4/2 36/5/2 28/6/2
f 29/4/3 28/6/3 20/7/3
f 35/8/4 21/9/4 30/10/4
f 31/11/5 35/8/5 30/10/5
f 31/11/6 30/10/6 16/12/6
f 16/13/7 9/14/7 11/15/7
f 17/16/8 8/17/8 14/18/8
f 18/19/9 7/20/9 13/21/9
f 19/22/10 6/23/10 12/24/10
f 20/25/11 5/26/11 10/27/11
f 21/9/4 3/28/4 30/10/4
f 22/29/12 1/30/12 4/31/12
f 23/32/13 27/33/13 2/34/13
f 24/35/14 29/4/14 26/36/14
f 25/2/1 31/37/1 28/3/1
f 21/9/15 32/38/15 3/28/15
f 22/29/16 33/39/16 1/30/16
f 23/40/17 34/41/17 27/42/17
f 24/35/2 36/5/2 29/4/2
f 25/43/5 35/8/5 31/11/5
f 27/42/18 26/36/18 19/22/18
f 27/42/17 34/41/17 26/36/17
f 34/41/14 24/35/14 26/36/14
f 1/30/19 2/34/19 18/19/19
f 1/30/16 33/39/16 2/34/16
f 33/39/13 23/32/13 2/34/13
f 3/28/20 4/44/20 17/45/20
f 3/28/15 32/38/15 4/44/15
f 32/46/12 22/29/12 4/31/12
f 28/3/21 5/26/21 20/25/21
f 28/3/22 31/37/22 5/26/22
f 31/37/23 16/13/23 5/26/23
f 26/36/24 6/23/24 19/22/24
f 26/36/25 29/4/25 6/23/25
f 29/4/26 20/7/26 6/23/26
f 2/34/27 7/20/27 18/19/27
f 2/34/28 27/33/28 7/20/28
f 27/42/29 19/22/29 7/47/29
f 4/44/30 8/48/30 17/45/30
f 4/31/31 1/30/31 8/49/31
f 1/30/32 18/19/32 8/49/32
f 30/10/33 9/50/33 16/12/33
f 30/10/34 3/28/34 9/50/34
f 3/28/35 17/45/35 9/50/35
f 10/27/36 11/15/36 15/51/36
f 10/27/37 5/26/37 11/15/37
f 5/26/38 16/13/38 11/15/38
f 12/52/39 10/27/39 15/51/39
f 12/24/40 6/23/40 10/53/40
f 6/54/41 20/25/41 10/27/41
f 13/55/42 12/56/42 15/57/42
f 13/55/43 7/58/43 12/56/43
f 7/47/44 19/22/44 12/24/44
f 14/18/45 13/55/45 15/57/45
f 14/18/46 8/17/46 13/55/46
f 8/17/47 18/59/47 13/55/47
f 11/60/48 14/18/48 15/57/48
f 11/60/49 9/61/49 14/18/49
f 9/50/50 17/45/50 14/62/50
g Icosphere_Icosphere_Lamp_NONE
usemtl Lamp_NONE
f 33/63/51 36/64/51 35/65/51
f 35/65/51 21/66/51 32/67/51
f 32/67/51 22/68/51 33/63/51
f 33/63/51 23/69/51 34/70/51
f 34/70/51 24/71/51 33/63/51
f 36/64/51 25/72/51 35/65/51
f 35/65/51 32/67/51 33/63/51
f 33/63/51 24/71/51 36/64/51
g Icosphere_Icosphere_Lamp_Bottom
usemtl Lamp_Bottom
f 32/73/52 38/74/52 37/75/52
f 21/76/53 39/77/53 38/78/53
f 35/79/54 40/80/54 39/77/54
f 25/81/55 41/82/55 40/80/55
f 36/83/56 42/84/56 41/85/56
f 24/86/57 43/87/57 42/84/57
f 34/88/58 44/89/58 43/90/58
f 23/91/59 45/92/59 44/89/59
f 33/93/60 46/94/60 45/92/60
f 22/95/61 37/75/61 46/96/61
f 40/97/62 44/98/62 46/99/62
f 32/73/52 21/100/52 38/74/52
f 21/76/53 35/79/53 39/77/53
f 35/79/54 25/81/54 40/80/54
f 25/81/55 36/101/55 41/82/55
f 36/83/56 24/86/56 42/84/56
f 24/86/57 34/102/57 43/87/57
f 34/88/58 23/91/58 44/89/58
f 23/91/59 33/93/59 45/92/59
f 33/93/60 22/103/60 46/94/60
f 22/95/61 32/73/61 37/75/61
f 46/99/62 37/104/62 38/105/62
f 38/105/62 39/106/62 46/99/62
f 40/97/62 41/107/62 44/98/62
f 42/108/62 43/109/62 44/98/62
f 44/98/62 45/110/62 46/99/62
f 46/99/62 39/106/62 40/97/62
f 41/107/62 42/108/62 44/98/62
